<?xml version="1.0" standalone="no"?>
<!DOCTYPE svg PUBLIC "-//W3C//DTD SVG 20010904//EN"
 "http://www.w3.org/TR/2001/REC-SVG-20010904/DTD/svg10.dtd">
<svg version="1.0" xmlns="http://www.w3.org/2000/svg"
 width="1000.000000pt" height="1000.000000pt" viewBox="0 0 1000.000000 1000.000000"
 preserveAspectRatio="xMidYMid meet">

<g transform="translate(0.000000,1000.000000) scale(0.100000,-0.100000)"
fill="#000000" stroke="none">
<path d="M62 8678 l3 -1253 380 -3 c348 -2 381 -1 393 15 9 13 12 201 12 858
l0 842 178 6 c252 8 1703 10 1735 2 l27 -7 0 -957 c0 -731 -3 -960 -12 -969
-9 -9 -179 -12 -704 -12 -543 0 -695 -3 -701 -12 -4 -7 -10 -116 -13 -243 l-5
-230 -645 -5 -645 -5 -3 -404 c-2 -317 1 -406 10 -413 7 -4 300 -8 651 -8 350
0 637 -3 637 -7 4 -64 6 -567 2 -620 l-5 -73 -646 -2 -646 -3 -3 -403 -2 -402
26 -10 c15 -6 266 -10 650 -10 343 0 624 -3 624 -7 0 -5 2 -156 5 -337 3 -228
1 -334 -7 -343 -8 -10 -137 -13 -654 -13 l-644 0 2 -1778 3 -1777 1235 -3
c679 -1 1245 0 1257 3 l23 5 0 379 c0 305 -3 381 -13 390 -10 8 -256 12 -863
13 l-849 3 -3 968 -2 967 967 -2 968 -3 5 -700 5 -699 25 -7 c14 -4 123 -7
243 -8 l217 -1 0 -643 c0 -487 3 -646 12 -655 9 -9 111 -12 399 -12 213 0 394
3 403 6 14 6 16 72 16 649 0 504 3 646 12 652 7 4 161 10 341 11 247 3 331 1
342 -8 13 -11 15 -103 15 -655 0 -577 2 -643 16 -649 20 -8 768 -8 788 0 14 6
16 72 16 654 l0 648 23 6 c12 3 167 6 343 6 277 0 323 -2 334 -15 10 -13 12
-143 8 -644 -4 -345 -3 -634 2 -640 6 -10 389 -12 1776 -11 972 0 1770 2 1772
4 5 6 5 2487 0 2492 -8 7 -754 8 -766 0 -9 -5 -12 -206 -12 -850 0 -641 -3
-845 -12 -854 -9 -9 -237 -12 -965 -12 -931 0 -953 0 -963 19 -16 30 -14 1903
2 1919 9 9 180 12 710 12 l698 0 2 243 3 242 653 3 c612 2 652 3 653 20 5 93
-3 788 -9 794 -4 4 -298 9 -652 10 l-645 3 0 350 0 350 653 3 652 2 2 313 c2
305 2 378 -1 465 l-1 42 -639 0 c-352 0 -646 3 -655 6 -14 5 -16 46 -16 349 0
303 2 344 16 349 9 3 303 6 655 6 l639 0 0 38 c0 20 0 811 1 1757 0 946 1
1728 0 1738 -1 16 -68 17 -1250 17 -1130 0 -1249 -2 -1255 -16 -10 -26 -7
-738 4 -754 8 -13 110 -15 843 -11 458 2 843 0 855 -3 l22 -7 0 -958 c0 -731
-3 -960 -12 -969 -9 -9 -237 -12 -965 -12 -931 0 -953 0 -963 19 -6 13 -10
252 -10 705 0 425 -4 687 -10 691 -5 3 -108 6 -230 6 -121 0 -227 2 -235 5
-13 5 -15 85 -15 633 0 344 -3 636 -6 649 l-6 22 -402 -2 -401 -3 -3 -640 c-2
-588 -3 -641 -19 -652 -25 -19 -666 -18 -682 0 -8 10 -12 201 -13 653 l-3 639
-410 0 -410 0 -3 -647 -2 -648 -23 -5 c-12 -3 -168 -4 -347 -3 l-325 3 -5 650
-5 650 -1778 3 -1777 2 2 -1252z m6279 -901 c14 -25 6 -554 -9 -569 -4 -4
-615 -7 -1358 -6 l-1349 3 -3 292 -2 292 32 3 c18 2 628 5 1355 6 l1323 1 11
-22z m-3563 -1412 c17 -6 18 -2685 0 -2703 -18 -18 -564 -17 -575 1 -10 15
-16 2022 -7 2414 l6 292 142 3 c155 3 414 -1 434 -7z m4976 -1 c15 -14 16
-146 13 -1353 -2 -736 -7 -1343 -11 -1349 -5 -9 -83 -12 -286 -12 -266 0 -280
1 -290 19 -7 13 -10 454 -10 1355 0 1261 1 1336 18 1345 10 6 121 11 284 11
230 0 269 -2 282 -16z m-2589 -133 c323 -62 593 -239 770 -506 89 -134 150
-292 176 -457 17 -115 7 -351 -21 -457 -121 -462 -498 -786 -989 -850 -111
-15 -1105 -15 -1132 -1 -19 10 -19 34 -19 1144 0 623 3 1136 7 1139 3 4 254 7
557 7 501 0 560 -2 651 -19z m1175 -3416 c18 -22 10 -563 -9 -574 -7 -5 -603
-7 -1325 -5 -721 3 -1328 4 -1348 4 l-38 0 0 290 0 289 68 3 c37 2 646 4 1353
6 1130 2 1288 0 1299 -13z"/>
<path d="M4532 5103 l3 -608 209 -3 c261 -3 345 9 465 69 150 74 268 217 315
381 10 35 16 94 16 158 0 64 -6 123 -16 158 -47 165 -165 307 -315 381 -124
60 -191 71 -455 71 l-224 0 2 -607z"/>
</g>
</svg>
